<mxfile host="app.diagrams.net" modified="2022-09-07T10:25:39.926Z" agent="5.0 (Macintosh; Intel Mac OS X 10_15_7) AppleWebKit/537.36 (KHTML, like Gecko) Chrome/105.0.0.0 Safari/537.36" etag="4D_7LgQ6AL5WHYP2oAaI" version="20.2.8" type="github">
  <diagram id="if3B6QQAE6eZi2-pKIbN" name="第 1 页">
    <mxGraphModel dx="1988" dy="744" grid="1" gridSize="10" guides="1" tooltips="1" connect="1" arrows="1" fold="1" page="1" pageScale="1" pageWidth="827" pageHeight="1169" math="0" shadow="0">
      <root>
        <mxCell id="0" />
        <mxCell id="1" parent="0" />
        <mxCell id="OdHCeF9NfWSDj2nY7xyS-1" value="ESTABLISHED" style="rounded=0;whiteSpace=wrap;html=1;fontSize=16;fillColor=#d5e8d4;strokeColor=#82b366;gradientColor=#97d077;" parent="1" vertex="1">
          <mxGeometry x="120" y="240" width="120" height="40" as="geometry" />
        </mxCell>
        <mxCell id="OdHCeF9NfWSDj2nY7xyS-2" value="客户端" style="aspect=fixed;perimeter=ellipsePerimeter;html=1;align=center;shadow=0;dashed=0;spacingTop=3;image;image=img/lib/active_directory/home_page.svg;fontSize=16;" parent="1" vertex="1">
          <mxGeometry x="140" y="130" width="77.78" height="70" as="geometry" />
        </mxCell>
        <mxCell id="OdHCeF9NfWSDj2nY7xyS-3" value="服务端" style="aspect=fixed;perimeter=ellipsePerimeter;html=1;align=center;shadow=0;dashed=0;spacingTop=3;image;image=img/lib/active_directory/web_server.svg;fontSize=16;" parent="1" vertex="1">
          <mxGeometry x="586.89" y="120" width="64" height="80" as="geometry" />
        </mxCell>
        <mxCell id="OdHCeF9NfWSDj2nY7xyS-4" value="假设&amp;nbsp;&amp;nbsp;tcp_orphan_retries&amp;nbsp;= 2，&lt;br&gt;当第二次挥手一直丢失时" style="rounded=1;whiteSpace=wrap;html=1;fontSize=16;fillColor=#fff2cc;gradientColor=#ffd966;strokeColor=#d6b656;" parent="1" vertex="1">
          <mxGeometry x="258.89" y="110" width="290" height="110" as="geometry" />
        </mxCell>
        <mxCell id="OdHCeF9NfWSDj2nY7xyS-5" value="ESTABLISHED" style="rounded=0;whiteSpace=wrap;html=1;fontSize=16;fillColor=#d5e8d4;strokeColor=#82b366;gradientColor=#97d077;" parent="1" vertex="1">
          <mxGeometry x="558.89" y="240" width="120" height="40" as="geometry" />
        </mxCell>
        <mxCell id="OdHCeF9NfWSDj2nY7xyS-6" value="FIN_WAIT_1" style="rounded=0;whiteSpace=wrap;html=1;fontSize=16;fillColor=#ffcd28;strokeColor=#d79b00;gradientColor=#ffa500;" parent="1" vertex="1">
          <mxGeometry x="120" y="280" width="120" height="580" as="geometry" />
        </mxCell>
        <mxCell id="OdHCeF9NfWSDj2nY7xyS-7" value="&lt;b style=&quot;color: rgb(255, 153, 51); font-size: 16px;&quot;&gt;FIN&lt;br style=&quot;font-size: 16px;&quot;&gt;seq = x，ack = y&lt;/b&gt;" style="rounded=0;orthogonalLoop=1;jettySize=auto;html=1;fontSize=16;exitX=1;exitY=0;exitDx=0;exitDy=0;fillColor=#ffcd28;gradientColor=#ffa500;strokeColor=#d79b00;strokeWidth=2;entryX=0;entryY=1;entryDx=0;entryDy=0;" parent="1" target="OdHCeF9NfWSDj2nY7xyS-5" edge="1">
          <mxGeometry x="-0.125" y="10" relative="1" as="geometry">
            <mxPoint x="450" y="280" as="targetPoint" />
            <mxPoint as="offset" />
            <mxPoint x="240" y="280" as="sourcePoint" />
          </mxGeometry>
        </mxCell>
        <mxCell id="OdHCeF9NfWSDj2nY7xyS-8" value="" style="shape=curlyBracket;whiteSpace=wrap;html=1;rounded=1;fontSize=16;" parent="1" vertex="1">
          <mxGeometry x="100" y="278" width="20" height="122" as="geometry" />
        </mxCell>
        <mxCell id="OdHCeF9NfWSDj2nY7xyS-9" value="超时重传 &lt;br&gt;RTO" style="text;html=1;align=center;verticalAlign=middle;resizable=0;points=[];autosize=1;strokeColor=#36393d;fillColor=#ffff88;fontSize=16;" parent="1" vertex="1">
          <mxGeometry y="320" width="90" height="50" as="geometry" />
        </mxCell>
        <mxCell id="OdHCeF9NfWSDj2nY7xyS-12" value="" style="shape=curlyBracket;whiteSpace=wrap;html=1;rounded=1;fontSize=16;" parent="1" vertex="1">
          <mxGeometry x="98.89" y="398" width="20" height="160" as="geometry" />
        </mxCell>
        <mxCell id="OdHCeF9NfWSDj2nY7xyS-13" value="" style="shape=curlyBracket;whiteSpace=wrap;html=1;rounded=1;fontSize=16;" parent="1" vertex="1">
          <mxGeometry x="98.89" y="558" width="20" height="300" as="geometry" />
        </mxCell>
        <mxCell id="OdHCeF9NfWSDj2nY7xyS-14" value="超时重传&lt;br&gt;2*RTO" style="text;html=1;align=center;verticalAlign=middle;resizable=0;points=[];autosize=1;strokeColor=#36393d;fillColor=#ffff88;fontSize=16;" parent="1" vertex="1">
          <mxGeometry y="448" width="90" height="50" as="geometry" />
        </mxCell>
        <mxCell id="OdHCeF9NfWSDj2nY7xyS-15" value="超时重传&lt;br&gt;4*RTO" style="text;html=1;align=center;verticalAlign=middle;resizable=0;points=[];autosize=1;strokeColor=#36393d;fillColor=#ffff88;fontSize=16;" parent="1" vertex="1">
          <mxGeometry y="678" width="90" height="50" as="geometry" />
        </mxCell>
        <mxCell id="OdHCeF9NfWSDj2nY7xyS-16" value="&lt;b style=&quot;font-size: 16px;&quot;&gt;&lt;font color=&quot;#ff0000&quot;&gt;重传&lt;/font&gt;&lt;/b&gt;&lt;b style=&quot;color: rgb(255, 153, 51); font-size: 16px;&quot;&gt; FIN&lt;br style=&quot;font-size: 16px;&quot;&gt;seq = x，ack = y&lt;/b&gt;" style="rounded=0;orthogonalLoop=1;jettySize=auto;html=1;fontSize=16;exitX=1;exitY=0;exitDx=0;exitDy=0;fillColor=#ffcd28;gradientColor=#ffa500;strokeColor=#d79b00;strokeWidth=2;" parent="1" edge="1">
          <mxGeometry x="-0.0968" y="7" relative="1" as="geometry">
            <mxPoint x="550" y="397" as="targetPoint" />
            <mxPoint as="offset" />
            <mxPoint x="240" y="397" as="sourcePoint" />
          </mxGeometry>
        </mxCell>
        <mxCell id="OdHCeF9NfWSDj2nY7xyS-17" value="&lt;b style=&quot;font-size: 16px;&quot;&gt;&lt;font color=&quot;#ff0000&quot;&gt;重传&lt;/font&gt;&lt;/b&gt;&lt;b style=&quot;color: rgb(255, 153, 51); font-size: 16px;&quot;&gt; FIN&lt;br style=&quot;font-size: 16px;&quot;&gt;seq = x，ack = y&lt;/b&gt;" style="rounded=0;orthogonalLoop=1;jettySize=auto;html=1;fontSize=16;exitX=1;exitY=0;exitDx=0;exitDy=0;fillColor=#ffcd28;gradientColor=#ffa500;strokeColor=#d79b00;strokeWidth=2;" parent="1" edge="1">
          <mxGeometry x="-0.125" y="10" relative="1" as="geometry">
            <mxPoint x="550" y="557" as="targetPoint" />
            <mxPoint as="offset" />
            <mxPoint x="240" y="557" as="sourcePoint" />
          </mxGeometry>
        </mxCell>
        <mxCell id="OdHCeF9NfWSDj2nY7xyS-18" value="CLOSE" style="rounded=0;whiteSpace=wrap;html=1;fontSize=16;fillColor=#f5f5f5;strokeColor=#666666;gradientColor=#b3b3b3;" parent="1" vertex="1">
          <mxGeometry x="120" y="860" width="120" height="40" as="geometry" />
        </mxCell>
        <mxCell id="OdHCeF9NfWSDj2nY7xyS-19" value="&lt;blockquote style=&quot;orphans: 2; text-align: center; text-indent: 0px; widows: 2; text-decoration-thickness: initial; text-decoration-style: initial; text-decoration-color: initial; margin: 0px 0px 0px 40px; border: none; padding: 0px; -webkit-text-stroke-width: 0px; word-spacing: 0px; text-transform: none; letter-spacing: normal; font-weight: 400; font-variant-caps: normal; font-variant-ligatures: normal; font-style: normal; font-size: 16px; font-family: Helvetica; color: rgb(0, 0, 0);&quot;&gt;FIN 报文重传次数，&lt;/blockquote&gt;&lt;blockquote style=&quot;orphans: 2; text-align: center; text-indent: 0px; widows: 2; text-decoration-thickness: initial; text-decoration-style: initial; text-decoration-color: initial; margin: 0px 0px 0px 40px; border: none; padding: 0px;&quot;&gt;如超过 tcp_orphan_retries&amp;nbsp;参数的值，&lt;span style=&quot;color: rgb(0, 0, 0); font-family: Helvetica; font-size: 16px; font-style: normal; font-variant-ligatures: normal; font-variant-caps: normal; font-weight: 400; letter-spacing: normal; text-transform: none; word-spacing: 0px; -webkit-text-stroke-width: 0px;&quot;&gt;则会在等待一段时间，&lt;/span&gt;&lt;/blockquote&gt;&lt;blockquote style=&quot;font-family: Helvetica; font-size: 16px; font-style: normal; font-variant-ligatures: normal; font-variant-caps: normal; font-weight: 400; letter-spacing: normal; orphans: 2; text-align: center; text-indent: 0px; text-transform: none; widows: 2; word-spacing: 0px; -webkit-text-stroke-width: 0px; text-decoration-thickness: initial; text-decoration-style: initial; text-decoration-color: initial; color: rgb(0, 0, 0); margin: 0px 0px 0px 40px; border: none; padding: 0px;&quot;&gt;还是没能收到第二次挥手的话，&lt;/blockquote&gt;&lt;blockquote style=&quot;font-family: Helvetica; font-size: 16px; font-style: normal; font-variant-ligatures: normal; font-variant-caps: normal; font-weight: 400; letter-spacing: normal; orphans: 2; text-align: center; text-indent: 0px; text-transform: none; widows: 2; word-spacing: 0px; -webkit-text-stroke-width: 0px; text-decoration-thickness: initial; text-decoration-style: initial; text-decoration-color: initial; color: rgb(0, 0, 0); margin: 0px 0px 0px 40px; border: none; padding: 0px;&quot;&gt;就会断开连接&lt;/blockquote&gt;" style="text;whiteSpace=wrap;html=1;fontSize=16;fillColor=#ffff88;strokeColor=#36393d;labelBackgroundColor=none;" parent="1" vertex="1">
          <mxGeometry x="-50" y="900" width="480" height="100" as="geometry" />
        </mxCell>
        <mxCell id="OdHCeF9NfWSDj2nY7xyS-20" value="CLOSE_WAIT" style="rounded=0;whiteSpace=wrap;html=1;fontSize=16;fillColor=#e6d0de;strokeColor=#996185;gradientColor=#d5739d;" parent="1" vertex="1">
          <mxGeometry x="558.89" y="280" width="120" height="720" as="geometry" />
        </mxCell>
        <mxCell id="OdHCeF9NfWSDj2nY7xyS-22" value="&lt;b style=&quot;font-size: 16px;&quot;&gt;&lt;font color=&quot;#cc00cc&quot;&gt;ACK&lt;br style=&quot;font-size: 16px;&quot;&gt;seq = y，ack = x+1&lt;/font&gt;&lt;/b&gt;" style="rounded=0;orthogonalLoop=1;jettySize=auto;html=1;fontSize=16;fillColor=#e6d0de;gradientColor=#d5739d;strokeColor=#996185;strokeWidth=2;" parent="1" edge="1">
          <mxGeometry x="-0.1061" relative="1" as="geometry">
            <mxPoint x="360" y="323" as="targetPoint" />
            <mxPoint as="offset" />
            <mxPoint x="550" y="323" as="sourcePoint" />
          </mxGeometry>
        </mxCell>
        <mxCell id="OdHCeF9NfWSDj2nY7xyS-23" value="丢失" style="text;html=1;align=center;verticalAlign=middle;resizable=0;points=[];autosize=1;strokeColor=#B20000;fillColor=#e51400;fontSize=16;fontColor=#ffffff;" parent="1" vertex="1">
          <mxGeometry x="300" y="310" width="60" height="30" as="geometry" />
        </mxCell>
        <mxCell id="OdHCeF9NfWSDj2nY7xyS-24" value="&lt;b style=&quot;font-size: 16px;&quot;&gt;&lt;font color=&quot;#cc00cc&quot;&gt;ACK&lt;br style=&quot;font-size: 16px;&quot;&gt;seq = y，ack = x+1&lt;/font&gt;&lt;/b&gt;" style="rounded=0;orthogonalLoop=1;jettySize=auto;html=1;fontSize=16;fillColor=#e6d0de;gradientColor=#d5739d;strokeColor=#996185;strokeWidth=2;" parent="1" edge="1">
          <mxGeometry x="-0.1061" relative="1" as="geometry">
            <mxPoint x="368.89" y="443" as="targetPoint" />
            <mxPoint as="offset" />
            <mxPoint x="558.89" y="443" as="sourcePoint" />
          </mxGeometry>
        </mxCell>
        <mxCell id="OdHCeF9NfWSDj2nY7xyS-25" value="丢失" style="text;html=1;align=center;verticalAlign=middle;resizable=0;points=[];autosize=1;strokeColor=#B20000;fillColor=#e51400;fontSize=16;fontColor=#ffffff;" parent="1" vertex="1">
          <mxGeometry x="308.89" y="430" width="60" height="30" as="geometry" />
        </mxCell>
        <mxCell id="OdHCeF9NfWSDj2nY7xyS-26" value="&lt;b style=&quot;font-size: 16px;&quot;&gt;&lt;font color=&quot;#cc00cc&quot;&gt;ACK&lt;br style=&quot;font-size: 16px;&quot;&gt;seq = y，ack = x+1&lt;/font&gt;&lt;/b&gt;" style="rounded=0;orthogonalLoop=1;jettySize=auto;html=1;fontSize=16;fillColor=#e6d0de;gradientColor=#d5739d;strokeColor=#996185;strokeWidth=2;" parent="1" edge="1">
          <mxGeometry x="-0.1061" relative="1" as="geometry">
            <mxPoint x="368.89" y="598" as="targetPoint" />
            <mxPoint as="offset" />
            <mxPoint x="558.89" y="598" as="sourcePoint" />
          </mxGeometry>
        </mxCell>
        <mxCell id="OdHCeF9NfWSDj2nY7xyS-27" value="丢失" style="text;html=1;align=center;verticalAlign=middle;resizable=0;points=[];autosize=1;strokeColor=#B20000;fillColor=#e51400;fontSize=16;fontColor=#ffffff;" parent="1" vertex="1">
          <mxGeometry x="308.89" y="585" width="60" height="30" as="geometry" />
        </mxCell>
      </root>
    </mxGraphModel>
  </diagram>
</mxfile>
